# xmcd CD database file
#
# Track frame offsets:
#	150
#	20735
#	46410
#	80673
#	92489
#	113321
#	131663
#	156831
#	169693
#	182246
#	197856
#	220902
#	249244
#	282025
#	310527
#
# Disc length: 4569 seconds
#
# Revision: 1
# Processed by: cddbd v1.5.1PL0 Copyright (c) Steve Scherf et al.
# Submitted via: CDex 1.51
#
DISCID=c311d70f
DTITLE=聖經 - 撤母耳記下
DYEAR=1900
DGENRE=Speech
TTITLE0=撤母耳記下第01章
TTITLE1=撤母耳記下第02章
TTITLE2=撤母耳記下第03章
TTITLE3=撤母耳記下第04章
TTITLE4=撤母耳記下第05章
TTITLE5=撤母耳記下第06章
TTITLE6=撤母耳記下第07章
TTITLE7=撤母耳記下第08章
TTITLE8=撤母耳記下第09章
TTITLE9=撤母耳記下第10章
TTITLE10=撤母耳記下第11章
TTITLE11=撤母耳記下第12章
TTITLE12=撤母耳記下第13章
TTITLE13=撤母耳記下第14章
TTITLE14=撤母耳記下第15章
EXTD=
EXTT0=
EXTT1=
EXTT2=
EXTT3=
EXTT4=
EXTT5=
EXTT6=
EXTT7=
EXTT8=
EXTT9=
EXTT10=
EXTT11=
EXTT12=
EXTT13=
EXTT14=
PLAYORDER=
